<svg width="9" height="7" viewBox="0 0 9 7" fill="none" xmlns="http://www.w3.org/2000/svg">
<path d="M2.2245 1.53596L2.57671 1.20985L2.25059 0.857644L1.89839 1.18376L2.2245 1.53596ZM2.55062 1.88817L2.19841 2.21429L2.19841 2.21429L2.55062 1.88817ZM1.52009 2.1882L1.19398 1.83599L0.841771 2.16211L1.16789 2.51431L1.52009 2.1882ZM1.84621 2.5404L2.19841 2.21429V2.21429L1.84621 2.5404ZM4.11003 4.98533L4.46224 4.65921H4.46224L4.11003 4.98533ZM4.43615 5.33754L4.08394 5.66365L4.41006 6.01586L4.76226 5.68974L4.43615 5.33754ZM4.5 5.27841L4.82612 4.92621L4.5 4.62425L4.17388 4.92621L4.5 5.27841ZM4.56385 5.33754L4.23774 5.68974L4.58994 6.01586L4.91606 5.66365L4.56385 5.33754ZM4.88997 4.98533L4.53776 4.65921H4.53776L4.88997 4.98533ZM7.15379 2.5404L6.80159 2.21429L6.80159 2.21429L7.15379 2.5404ZM7.47991 2.1882L7.83211 2.51431L8.15823 2.16211L7.80602 1.83599L7.47991 2.1882ZM6.7755 1.53596L7.10161 1.18376L6.74941 0.857644L6.42329 1.20985L6.7755 1.53596ZM6.44938 1.88817L6.80159 2.21429V2.21429L6.44938 1.88817ZM4.5 3.9935L4.14779 4.31962L4.5 4.7L4.85221 4.31962L4.5 3.9935ZM1.8723 1.86208L2.19841 2.21429L2.90282 1.56205L2.57671 1.20985L1.8723 1.86208ZM1.84621 2.5404L2.55062 1.88817L1.89839 1.18376L1.19398 1.83599L1.84621 2.5404ZM2.19841 2.21429L1.8723 1.86208L1.16789 2.51431L1.494 2.86652L2.19841 2.21429ZM4.46224 4.65921L2.19841 2.21429L1.494 2.86652L3.75783 5.31145L4.46224 4.65921ZM4.78835 5.01142L4.46224 4.65921L3.75783 5.31145L4.08394 5.66365L4.78835 5.01142ZM4.17388 4.92621L4.11003 4.98533L4.76226 5.68974L4.82612 5.63062L4.17388 4.92621ZM4.17388 5.63062L4.23774 5.68974L4.88997 4.98533L4.82612 4.92621L4.17388 5.63062ZM4.91606 5.66365L5.24217 5.31145L4.53776 4.65921L4.21165 5.01142L4.91606 5.66365ZM5.24217 5.31145L7.506 2.86652L6.80159 2.21429L4.53776 4.65921L5.24217 5.31145ZM7.506 2.86652L7.83211 2.51431L7.1277 1.86208L6.80159 2.21429L7.506 2.86652ZM7.80602 1.83599L7.10161 1.18376L6.44938 1.88817L7.15379 2.5404L7.80602 1.83599ZM6.42329 1.20985L6.09718 1.56205L6.80159 2.21429L7.1277 1.86208L6.42329 1.20985ZM6.09718 1.56205L4.14779 3.66739L4.85221 4.31962L6.80159 2.21429L6.09718 1.56205ZM2.19841 2.21429L4.14779 4.31962L4.85221 3.66739L2.90282 1.56205L2.19841 2.21429Z" fill="#949AB1"/>
</svg>
