<svg width="24" height="24" viewBox="0 0 24 24" fill="none" xmlns="http://www.w3.org/2000/svg">
<path d="M0.100227 11.4665C0.233747 11.3332 0.233746 11.1998 0.367265 11.0665L4.37283 7.0665C4.9069 6.53317 5.70802 6.53317 6.24209 7.0665C6.77617 7.59984 6.77617 8.39984 6.24209 8.93317L4.50635 10.6665H10.6482C11.4493 10.6665 11.9834 11.1998 11.9834 11.9998C11.9834 12.7998 11.4493 13.3332 10.6482 13.3332H4.50635L6.24209 15.0665C6.77617 15.5998 6.77617 16.3998 6.24209 16.9332C5.97505 17.1998 5.5745 17.3332 5.30746 17.3332C5.04042 17.3332 4.63987 17.1998 4.37283 16.9332L0.367265 12.9332C0.233746 12.7998 0.100227 12.6665 0.100227 12.5332C-0.0332918 12.1332 -0.0332918 11.8665 0.100227 11.4665Z" fill="white"/>
<path d="M7.31015 20.1333C8.77886 20.9333 10.3811 21.3333 11.9833 21.3333C17.1905 21.3333 21.3296 17.2 21.3296 12C21.3296 6.8 17.1905 2.66667 11.9833 2.66667C10.3811 2.66667 8.77886 3.06667 7.31015 3.86667C6.64256 4.26667 5.84145 4 5.44089 3.33333C5.04033 2.66667 5.30737 1.86667 5.97497 1.46667C7.84423 0.533333 9.84701 0 11.9833 0C18.6592 0 24 5.33333 24 12C24 18.6667 18.6592 24 11.9833 24C9.84701 24 7.84423 23.4667 5.97497 22.4C5.30737 22 5.17385 21.2 5.44089 20.5333C5.84145 20 6.64256 19.7333 7.31015 20.1333Z" fill="white"/>
</svg>
