<svg width="40" height="40" viewBox="0 0 40 40" fill="none" xmlns="http://www.w3.org/2000/svg">
<path fill-rule="evenodd" clip-rule="evenodd" d="M20 0C31.0457 0 40 8.9543 40 20C40 31.0457 31.0457 40 20 40C8.9543 40 0 31.0457 0 20C0 8.9543 8.9543 0 20 0ZM20 2.66667C10.4271 2.66667 2.66667 10.4271 2.66667 20C2.66667 29.5729 10.4271 37.3333 20 37.3333C29.5729 37.3333 37.3333 29.5729 37.3333 20C37.3333 10.4271 29.5729 2.66667 20 2.66667ZM20 4C28.8366 4 36 11.1634 36 20C36 28.8366 28.8366 36 20 36C11.1634 36 4 28.8366 4 20C4 11.1634 11.1634 4 20 4ZM18.7307 23.7187C18.0901 23.1204 17.0515 23.1204 16.4109 23.7187C15.7867 24.3016 15.7707 25.2374 16.3629 25.8384L16.4109 25.8851L21.0506 30.218C21.6912 30.8162 22.7298 30.8162 23.3704 30.218C23.9946 29.6351 24.0106 28.6993 23.4184 28.0983L23.3704 28.0515L18.7307 23.7187ZM16.1336 14.0423C15.493 13.4441 14.4544 13.4441 13.8138 14.0423C13.1896 14.6252 13.1736 15.561 13.7658 16.162L13.8138 16.2087L23.8664 25.5966C24.507 26.1949 25.5456 26.1949 26.1862 25.5966C26.8104 25.0137 26.8264 24.0779 26.2342 23.4769L26.1862 23.4302L16.1336 14.0423ZM19.2267 9.78202C18.5861 9.18377 17.5475 9.18377 16.9069 9.78202C16.2827 10.3649 16.2667 11.3007 16.8589 11.9017L16.9069 11.9485L20.7733 15.5592C21.4139 16.1574 22.4525 16.1574 23.0931 15.5592C23.7173 14.9763 23.7333 14.0405 23.1411 13.4395L23.0931 13.3927L19.2267 9.78202Z" fill="#FAB04E"/>
</svg>
